The.Ladykillers.2004.720p.HD-TV-Rip.x264.aac.mp4-anoXmous

Format                           : MPEG-4
Format profile                   : Base Media / Version 2
Codec ID                         : mp42
File size                        : 699 MiB
Duration                         : 1h 38mn
Overall bit rate mode            : Variable
Overall bit rate                 : 994 Kbps


Video
ID                               : 1
Format                           : AVC
Format/Info                      : Advanced Video Codec
Format profile                   : High@L4.1
Format settings, CABAC           : Yes
Format settings, ReFrames        : 4 frames
Codec ID                         : avc1
Codec ID/Info                    : Advanced Video Coding
Duration                         : 1h 38mn
Bit rate mode                    : Variable
Bit rate                         : 926 Kbps
Width                            : 1 280 pixels
Height                           : 688 pixels
Display aspect ratio             : 1.860
Frame rate mode                  : Variable
Frame rate                       : 23.976 fps
Minimum frame rate               : 23.974 fps
Maximum frame rate               : 23.981 fps
Color space                      : YUV
Chroma subsampling               : 4:2:0
Bit depth                        : 8 bits
Scan type                        : Progressive
Bits/(Pixel*Frame)               : 0.044
Stream size                      : 651 MiB (93%)
Language                         : English


Audio
ID                               : 2
Format                           : AAC
Format/Info                      : Advanced Audio Codec
Format profile                   : LC
Codec ID                         : 40
Duration                         : 1h 38mn
Bit rate mode                    : Variable
Bit rate                         : 64.6 Kbps
Maximum bit rate                 : 88.2 Kbps
Channel(s)                       : 2 channels
Channel positions                : Front: L R
Sampling rate                    : 48.0 KHz 
Compression mode                 : Lossy
Stream size                      : 45.4 MiB (6%)
Language                         : English

 
http://www.imdb.com/title/tt0335245/

This 1 should work very fine with PSP and XBOX :)